<svg width="32" height="32" viewBox="0 0 32 32" fill="none" xmlns="http://www.w3.org/2000/svg">
<rect width="32" height="32" fill="black"/>
<g clip-path="url(#clip0_70_138)">
<path d="M21.158 19.2574C21.158 19.2574 19.6123 20.5537 16.9367 20.5537C14.353 20.5537 10.6855 19.4365 10.6855 13.5591C10.6855 7.77177 14.6992 6.58711 16.9367 6.58711C19.6585 6.58711 21.158 7.63749 21.158 7.63749V7.1463C21.158 7.1463 19.5661 6.22961 16.9367 6.22961C12.7845 6.22961 9.00183 8.37515 9.00183 13.5591C9.00183 19.526 13.8225 20.9333 16.7291 20.9333C19.6123 20.9333 21.158 19.7492 21.158 19.7492V19.2574Z" fill="white"/>
<rect x="18" y="18" width="4" height="4" fill="black"/>
</g>
<path d="M24.3355 10.3575V10H17V24.0329H24.3355V23.6754H18.6381V16.8824H23.7126V16.5249H18.6381V10.3575H24.3355Z" fill="white"/>
<defs>
<clipPath id="clip0_70_138">
<rect width="21.8182" height="15" fill="white" transform="translate(9 6)"/>
</clipPath>
</defs>
</svg>
