<svg width="252" height="102" viewBox="0 0 252 102" fill="none" xmlns="http://www.w3.org/2000/svg">
<path d="M134.13 89.0898C134.13 89.0898 124.068 97.8008 106.65 97.8008C89.8297 97.8008 65.9547 90.293 65.9547 50.7969C65.9547 11.9062 92.0836 3.94531 106.65 3.94531C124.369 3.94531 134.13 11.0039 134.13 11.0039V7.70312C134.13 7.70312 123.767 1.54297 106.65 1.54297C79.6188 1.54297 54.9938 15.9609 54.9938 50.7969C54.9938 90.8945 86.3766 100.352 105.298 100.352C124.068 100.352 134.13 92.3945 134.13 92.3945V89.0898Z" fill="white"/>
<path d="M195.547 5.75V3.34766H147.793V97.6484H195.547V95.2461H158.457V49.5977H191.492V47.1953H158.457V5.75H195.547Z" fill="white"/>
<path d="M5.54782 62.7323C13.4736 62.7323 23.3486 58.1425 27.4853 55.5448C27.6377 55.4393 27.7431 55.2557 27.7431 55.076C27.7431 54.7753 27.5009 54.5331 27.2002 54.5331C27.1064 54.5331 26.9892 54.5643 26.9111 54.6229C22.8213 57.1893 13.2314 61.6425 5.54782 61.6425C3.55564 61.6425 2.33298 60.0878 2.69626 58.0057C3.85642 51.6503 15.3916 38.4979 24.6611 38.4979C26.79 38.4979 27.9072 39.3729 27.665 40.8221C27.1533 43.7518 23.665 47.5135 19.0322 50.1385C18.8486 50.244 18.7431 50.4276 18.7431 50.6229C18.7431 50.9237 18.9853 51.1659 19.2861 51.1659C19.3799 51.1659 19.4853 51.1346 19.5595 51.0917C23.5009 48.8573 28.0595 44.826 28.7236 41.0057C29.1025 38.8456 27.4697 37.412 24.6611 37.412C14.9111 37.412 2.82907 51.1659 1.63767 57.8221C1.14157 60.5565 2.86032 62.7323 5.54782 62.7323Z" fill="#E5E5E5"/>
<path d="M48.8177 54.5331C48.7279 54.5331 48.6342 54.5643 48.5287 54.6073C44.9974 56.8885 38.4584 60.0565 35.5013 60.0565C34.5638 60.0565 34.1576 59.7401 34.1576 59.0331C34.1576 58.4745 34.4427 57.7635 34.7592 56.9471C35.0795 56.1464 35.4388 55.2714 35.4388 54.5487C35.4388 53.8534 35.017 53.4003 34.3373 53.4003C32.9037 53.4003 30.2474 55.2557 26.1693 59.1073C24.9779 60.2401 23.8451 61.3417 22.9701 62.201C22.7592 62.412 22.6068 62.3964 22.8177 62.08C23.7865 60.494 25.431 58.2323 27.6342 55.4393C42.2631 46.1971 56.0326 30.6034 56.0326 27.0682C56.0326 26.2675 55.5521 25.8182 54.7045 25.8182C50.8412 25.8182 20.767 59.8612 20.767 64.2089C20.767 64.6034 21.0677 64.9042 21.4584 64.9042C21.7787 64.9042 22.0795 64.619 23.724 62.9706C23.9076 62.7909 24.1029 62.6112 24.3138 62.412C25.0834 61.6581 25.974 60.7987 26.9271 59.8925C30.2474 56.7518 32.767 54.8339 34.0365 54.5331C34.2318 54.4862 34.3529 54.6073 34.3217 54.8182C34.2474 55.3182 34.0209 55.8925 33.7631 56.5253C33.4467 57.3417 33.0717 58.2596 33.0717 59.0331C33.0717 60.3612 33.974 61.1464 35.5013 61.1464C38.7006 61.1464 45.5092 57.8534 49.1185 55.5292C49.2709 55.4237 49.3607 55.2557 49.3607 55.076C49.3607 54.7909 49.1029 54.5331 48.8177 54.5331ZM54.7045 26.9042C54.8881 26.9042 54.9467 26.9628 54.9467 27.1151C54.9467 29.9667 43.2318 43.4198 29.8529 52.6737C40.1342 40.0839 52.8334 26.9042 54.7045 26.9042Z" fill="#E5E5E5"/>
<path d="M48.136 68.1815C52.3196 68.1815 64.2297 60.4667 71.054 55.5135C71.1907 55.4237 71.2805 55.2557 71.2805 55.076C71.2805 54.7753 71.0383 54.5331 70.7375 54.5331C70.6165 54.5331 70.511 54.5643 70.4211 54.6385C63.6125 59.5604 51.9875 67.0917 48.136 67.0917C47.4563 67.0917 47.2297 66.8807 47.2297 66.2479C47.2297 64.3143 50.6438 60.9628 53.9954 57.6581C56.9524 54.744 59.8977 51.8456 59.8977 50.1229C59.8977 49.4745 59.3079 48.9628 58.554 48.2831C58.3274 48.0995 58.0852 47.8885 57.8586 47.662C60.6672 44.6581 62.3274 42.3495 62.3274 41.412C62.3274 40.8065 61.9797 40.4471 61.3938 40.4471C59.1868 40.4471 54.3704 44.1464 54.3704 45.8651C54.3704 46.455 54.8235 46.9393 56.2141 47.8573C53.9485 50.2128 51.1868 52.7362 48.4836 54.6385C48.3313 54.744 48.2415 54.9081 48.2415 55.0917C48.2415 55.3925 48.4836 55.6346 48.7844 55.6346C48.9055 55.6346 49.011 55.6034 49.1047 55.5292C51.5774 53.7792 54.5852 51.0448 57.1047 48.4471C58.343 49.2792 58.8118 49.7323 58.8118 50.1229C58.8118 51.3768 56.1829 53.9745 53.2258 56.8885C49.8743 60.1932 46.1438 63.8612 46.1438 66.2479C46.1438 67.4862 46.8547 68.1815 48.136 68.1815ZM56.9524 47.0604C55.9875 46.4081 55.4602 45.9706 55.4602 45.8651C55.4602 44.8846 59.2922 41.9393 60.8625 41.6073C61.0618 41.58 61.1829 41.6542 61.1204 41.8339C60.7141 42.8182 58.3899 45.5331 56.9524 47.0604Z" fill="#E5E5E5"/>
<path d="M74.1351 52.0253C74.2992 52.0253 74.4672 51.951 74.5726 51.8143C74.6156 51.7401 74.7094 51.6346 74.7992 51.4979C75.0258 51.2089 75.2953 50.8339 75.432 50.6815C75.5062 50.576 75.5531 50.455 75.5531 50.3339C75.5531 50.0331 75.3109 49.7909 75.0101 49.7909C74.8422 49.7909 74.6937 49.869 74.5883 49.9862L73.7133 51.1503C73.6351 51.2401 73.5922 51.3612 73.5922 51.4823C73.5922 51.7831 73.8304 52.0253 74.1351 52.0253ZM69.7562 61.205C72.0492 61.205 79.2992 57.8534 82.9515 55.5448C83.1039 55.455 83.2094 55.2557 83.2094 55.076C83.2094 54.7909 82.9515 54.5331 82.6625 54.5331C82.5726 54.5331 82.4828 54.5643 82.3773 54.6073C78.7679 56.8885 71.8109 60.119 69.7562 60.119C69.0765 60.119 68.8187 59.8768 68.8187 59.287C68.8187 58.369 70.4047 56.119 72.7133 53.7479L72.7289 53.7323C72.8187 53.6268 72.8656 53.5057 72.8656 53.369C72.8656 53.0839 72.6078 52.826 72.3226 52.826C72.1703 52.826 72.0336 52.8885 71.9281 52.994C69.2719 55.7401 67.7328 58.0331 67.7328 59.287C67.7328 60.494 68.4867 61.205 69.7562 61.205Z" fill="#E5E5E5"/>
<path d="M100.643 54.5331C100.568 54.5331 100.51 54.5487 100.463 54.5643C98.4082 55.2557 95.9941 55.9511 93.623 56.6464C91.7363 57.1737 89.8809 57.7323 88.2949 58.2323C88.3262 58.1268 88.3379 58.0057 88.3535 57.9159C88.416 57.2362 87.8887 56.8417 86.9668 56.8417C86.4082 56.8417 85.6543 56.9628 84.9277 57.0839C84.1426 57.2206 83.3887 57.3417 82.7832 57.3417C82.2559 57.3417 82.0723 57.2636 82.0723 57.037C82.0723 55.7089 85.6074 53.037 87.5254 53.037C87.6895 53.037 87.8262 53.0839 87.8262 53.205C87.8262 53.5956 87.2988 54.3221 86.7832 54.6229C86.6191 54.7128 86.5137 54.8964 86.5137 55.0917C86.5137 55.3925 86.7559 55.6346 87.0566 55.6346C87.1465 55.6346 87.252 55.6034 87.3418 55.5604C88.0215 55.1503 88.6738 54.2753 88.8848 53.4589C88.8965 53.3846 88.9121 53.2479 88.9121 53.1425C88.9121 52.4198 88.3691 51.951 87.5254 51.951C84.959 51.951 80.9863 55.0917 80.9863 57.1425C80.9863 57.9745 81.6348 58.4276 82.7832 58.4276C83.4629 58.4276 84.3223 58.2909 85.1074 58.1542C86.1035 57.9901 87.1777 57.7323 87.2988 57.9432C87.3574 58.0487 87.1621 58.369 86.9668 58.6542L86.877 58.7128C82.4668 60.2557 79.5059 61.9315 79.5059 63.0643C79.5059 63.6971 80.0059 64.0878 80.8379 64.0878C83.1465 64.0878 86.1504 61.6425 87.5527 59.6659C87.5684 59.6346 87.5996 59.619 87.6465 59.5917C89.4277 59.0018 91.6309 58.369 93.9277 57.6893C96.2949 56.994 98.7402 56.2831 100.811 55.5878C101.037 55.5292 101.189 55.3182 101.189 55.0761C101.189 54.7753 100.947 54.5331 100.643 54.5331ZM81.0488 63.0018C80.8965 63.0018 80.8223 62.955 80.8223 62.8964C80.8223 62.8221 80.8965 62.7323 81.0176 62.6542C81.834 62.08 83.7207 61.1151 85.6543 60.3143C84.0527 61.9315 82.166 63.0018 81.0488 63.0018Z" fill="#E5E5E5"/>
<path d="M132.576 26.9784C132.576 26.0135 131.928 25.4393 130.869 25.4393C125.119 25.4393 97.0956 53.5643 97.0956 61.705C97.0956 63.1698 97.8807 63.8495 99.5409 63.8495C102.244 63.8495 109.99 59.576 115.803 55.5604C115.955 55.455 116.045 55.287 116.045 55.1073C116.045 54.8026 115.803 54.5643 115.502 54.5643C115.381 54.5643 115.275 54.5917 115.182 54.6698C108.689 59.1503 101.701 62.7596 99.5409 62.7596C98.4706 62.7596 98.1815 62.5331 98.1815 61.705C98.1815 60.4198 98.9823 58.4589 100.568 55.8925C112.209 48.8417 132.576 31.0096 132.576 26.9784ZM130.869 26.5253C131.353 26.5253 131.49 26.6464 131.49 26.9784C131.49 30.0721 114.17 45.7596 102.064 53.6581C109.838 42.5917 126.869 26.5253 130.869 26.5253Z" fill="#E5E5E5"/>
<path d="M134.447 54.6073C134.326 54.6073 134.22 54.6542 134.115 54.7284C131.049 56.9042 126.974 59.5917 121.584 62.7753C124.513 58.5331 126.353 54.6815 126.353 53.6112C126.353 52.9628 126.01 52.5682 125.435 52.5682C124.904 52.5682 124.119 53.0839 121.177 55.3026C118.295 57.4901 114.791 60.1346 113.373 60.1346C113.158 60.1346 113.084 60.0721 113.084 59.8768C113.084 58.9862 116.072 55.0136 118.068 53.3378C118.185 53.2206 118.248 53.0839 118.248 52.9315C118.248 52.6464 117.99 52.3885 117.705 52.3885C117.568 52.3885 117.447 52.4354 117.357 52.5096C115.513 54.0643 111.998 58.4432 111.998 59.9667C111.998 60.7206 112.541 61.2206 113.373 61.2206C115.154 61.2206 118.943 58.3534 121.842 56.1776C123.713 54.7596 124.603 54.0643 124.967 53.869C125.103 53.7909 125.267 53.7909 125.224 54.0057C124.724 55.9667 121.431 61.2792 119.244 64.1659L118.775 64.451C115.334 66.4901 111.697 68.6503 108.177 70.8065C94.74 79.08 88.99 83.9432 88.99 87.0682C88.99 88.08 89.7126 88.744 90.783 88.744C95.4197 88.744 108.224 78.2792 117.041 68.5448C118.08 67.412 119.08 66.201 119.97 65.0096C126.326 61.2362 131.806 57.5526 134.779 55.5721C134.9 55.4979 134.99 55.3182 134.99 55.1503C134.99 54.8651 134.736 54.6073 134.447 54.6073ZM116.256 67.8182C106.775 78.2518 94.697 87.6581 90.783 87.6581C90.3025 87.6581 90.0759 87.4589 90.0759 87.0682C90.0759 84.4706 96.0994 79.5057 108.752 71.744C111.576 69.994 114.49 68.2714 117.326 66.58C116.978 66.9862 116.619 67.412 116.256 67.8182Z" fill="#E5E5E5"/>
<path d="M131.093 60.7831C131.304 60.7831 131.62 60.6034 132.499 59.951C132.62 59.8612 132.753 59.7714 132.89 59.6659C135.546 57.7479 140.937 53.869 142.976 53.869C143.14 53.869 143.218 53.9745 143.218 54.1112C143.218 54.3807 142.976 55.3925 142.734 56.4042C142.523 57.2948 142.312 58.1854 142.312 58.6073C142.312 59.5292 142.945 60.0878 143.988 60.0878C146.491 60.0878 150.796 58.3221 155.038 55.5292C155.206 55.4393 155.296 55.2557 155.296 55.076C155.296 54.7753 155.054 54.5331 154.753 54.5331C154.648 54.5331 154.542 54.5643 154.448 54.6229C150.405 57.2792 146.265 59.0018 143.988 59.0018C143.534 59.0018 143.398 58.8964 143.398 58.6073C143.398 58.3065 143.581 57.537 143.792 56.662C144.03 55.6503 144.304 54.5175 144.304 53.8964C144.304 53.205 143.82 52.7792 143.034 52.7792C141.331 52.7792 138.265 54.4706 132.937 58.2909C132.71 58.4432 132.648 58.3221 132.769 58.1542C134.054 56.3885 136.937 52.994 139.667 50.9393C139.804 50.8339 139.882 50.6659 139.882 50.5018C139.882 50.201 139.64 49.9589 139.335 49.9589C139.218 49.9589 139.097 50.0018 139.003 50.0643C135.019 53.0995 130.624 58.9706 130.429 59.9081C130.323 60.3885 130.624 60.7831 131.093 60.7831Z" fill="#E5E5E5"/>
<path d="M187.648 38.2401C184.25 38.2401 180.129 41.1698 180.129 43.6034C180.129 44.9003 181.172 45.8651 182.848 46.1971C175.418 49.201 168.684 55.1971 168.684 59.619C168.684 62.412 170.391 63.8495 173.684 63.8495C178.41 63.8495 185.219 59.455 189.445 55.5604C189.551 55.455 189.609 55.3182 189.609 55.1659C189.609 54.8807 189.355 54.6229 189.066 54.6229C188.93 54.6229 188.812 54.6698 188.691 54.7596C184.555 58.58 178.078 62.7596 173.684 62.7596C170.98 62.7596 169.773 61.7948 169.773 59.619C169.773 55.1815 178.168 48.3729 186.484 46.0917H186.469C187.027 46.0018 187.574 45.8807 188.102 45.744C188.418 45.6385 188.57 45.3846 188.492 45.08C188.402 44.7323 188.176 44.5839 187.844 44.6425C187.301 44.7479 186.742 44.8846 186.199 45.037H186.215C185.461 45.1581 184.793 45.2167 184.129 45.2167C182.395 45.2167 181.215 44.5526 181.215 43.6034C181.215 41.8065 184.93 39.33 187.648 39.33C188.586 39.33 189.145 40.0995 189.156 41.3807C189.156 41.6854 189.398 41.9276 189.703 41.9276C189.988 41.9276 190.246 41.6698 190.246 41.3807C190.215 39.4784 189.188 38.2401 187.648 38.2401Z" fill="#E5E5E5"/>
<path d="M205.22 54.6815C205.099 54.6815 204.978 54.7284 204.888 54.8026C203.243 56.1034 198.275 59.3026 192.193 63.2128C190.212 64.4979 188.325 65.705 186.544 66.8534C190.38 62.5487 192.689 59.6346 194.259 57.5956C196.056 55.2714 196.435 54.6542 196.435 53.9901C196.435 53.2635 195.693 52.8104 194.548 52.8104C190.876 52.8104 183.978 57.1307 183.978 59.455C183.978 60.2557 184.478 60.7675 185.275 60.7675C186.349 60.7675 188.673 59.6346 192.857 57.0995C193.099 56.9471 193.232 57.1425 193.068 57.369C191.482 59.4237 188.493 63.1971 182.95 69.2089L182.966 69.1776C165.982 80.2909 159.775 85.0604 159.775 87.0682C159.775 88.08 160.501 88.744 161.572 88.744C164.169 88.744 168.396 85.7245 174.661 79.3964C178.24 75.7909 181.2 72.6932 183.661 70.037L183.63 70.0526C186.407 68.2401 189.443 66.2635 192.779 64.119C198.865 60.2089 203.876 56.994 205.552 55.6503C205.689 55.5448 205.763 55.3925 205.763 55.2284C205.763 54.9237 205.521 54.6815 205.22 54.6815ZM192.282 56.162C188.462 58.5018 186.091 59.6815 185.275 59.6815C185.095 59.6815 185.064 59.6503 185.064 59.455C185.064 57.7792 191.65 53.8964 194.548 53.8964C194.786 53.8964 195.107 53.8964 195.345 53.9901C195.345 54.0643 195.333 54.1385 195.302 54.2323C195.24 54.2753 195.165 54.3221 195.091 54.3651C194.56 54.7128 193.657 55.3339 192.282 56.162ZM173.876 78.6425C167.943 84.6229 163.806 87.6581 161.572 87.6581C161.091 87.6581 160.865 87.4589 160.865 87.0682C160.865 85.7714 166.798 81.1932 179.736 72.6346C178.001 74.4471 176.052 76.455 173.876 78.6425Z" fill="#E5E5E5"/>
<path d="M219.382 54.5331C219.261 54.5331 219.156 54.5643 219.066 54.6385C214.37 58.0643 208.042 59.9237 206.081 59.9237C204.554 59.9237 203.8 59.5135 203.8 58.7596C203.8 58.0214 204.343 56.9784 205.249 55.9823C205.702 56.1776 206.202 56.2518 206.925 56.2518C208.316 56.2518 209.913 55.1346 209.913 54.1385C209.913 53.4159 209.355 52.9315 208.511 52.9315C206.156 52.9315 202.714 56.3885 202.714 58.7596C202.714 60.1932 203.937 61.0096 206.081 61.0096C208.195 61.0096 214.851 59.0604 219.698 55.5135C219.835 55.4237 219.925 55.2401 219.925 55.076C219.925 54.7753 219.683 54.5331 219.382 54.5331ZM208.827 54.1385C208.827 54.4706 208.058 55.1659 206.925 55.1659C206.609 55.1659 206.366 55.1503 206.156 55.1229C207.015 54.4276 207.878 54.0175 208.511 54.0175C208.781 54.0175 208.827 54.0643 208.827 54.1385Z" fill="#E5E5E5"/>
<path d="M235.383 54.6815C235.262 54.6815 235.141 54.7284 235.051 54.8026C233.406 56.1034 228.438 59.3026 222.356 63.2128C220.375 64.4979 218.488 65.705 216.707 66.8534C220.543 62.5487 222.852 59.6346 224.422 57.5956C226.219 55.2714 226.598 54.6542 226.598 53.9901C226.598 53.2635 225.856 52.8104 224.711 52.8104C221.039 52.8104 214.141 57.1307 214.141 59.455C214.141 60.2557 214.641 60.7675 215.438 60.7675C216.512 60.7675 218.836 59.6346 223.02 57.0995C223.262 56.9471 223.395 57.1425 223.231 57.369C221.645 59.4237 218.656 63.1971 213.113 69.2089L213.129 69.1776C196.145 80.2909 189.938 85.0604 189.938 87.0682C189.938 88.08 190.664 88.744 191.734 88.744C194.332 88.744 198.559 85.7245 204.824 79.3964C208.402 75.7909 211.363 72.6932 213.824 70.037L213.793 70.0526C216.57 68.2401 219.606 66.2635 222.942 64.119C229.027 60.2089 234.039 56.994 235.715 55.6503C235.852 55.5448 235.926 55.3925 235.926 55.2284C235.926 54.9237 235.684 54.6815 235.383 54.6815ZM222.445 56.162C218.625 58.5018 216.254 59.6815 215.438 59.6815C215.258 59.6815 215.227 59.6503 215.227 59.455C215.227 57.7792 221.813 53.8964 224.711 53.8964C224.949 53.8964 225.27 53.8964 225.508 53.9901C225.508 54.0643 225.496 54.1385 225.465 54.2323C225.402 54.2753 225.328 54.3221 225.254 54.3651C224.723 54.7128 223.82 55.3339 222.445 56.162ZM204.039 78.6425C198.106 84.6229 193.969 87.6581 191.734 87.6581C191.254 87.6581 191.027 87.4589 191.027 87.0682C191.027 85.7714 196.961 81.1932 209.899 72.6346C208.164 74.4471 206.215 76.455 204.039 78.6425Z" fill="#E5E5E5"/>
<path d="M249.546 54.5331C249.425 54.5331 249.319 54.5643 249.23 54.6385C244.534 58.0643 238.206 59.9237 236.245 59.9237C234.718 59.9237 233.964 59.5135 233.964 58.7596C233.964 58.0214 234.507 56.9784 235.413 55.9823C235.866 56.1776 236.366 56.2518 237.089 56.2518C238.48 56.2518 240.077 55.1346 240.077 54.1385C240.077 53.4159 239.519 52.9315 238.675 52.9315C236.319 52.9315 232.878 56.3885 232.878 58.7596C232.878 60.1932 234.101 61.0096 236.245 61.0096C238.359 61.0096 245.015 59.0604 249.862 55.5135C249.999 55.4237 250.089 55.2401 250.089 55.076C250.089 54.7753 249.847 54.5331 249.546 54.5331ZM238.991 54.1385C238.991 54.4706 238.222 55.1659 237.089 55.1659C236.773 55.1659 236.53 55.1503 236.319 55.1229C237.179 54.4276 238.042 54.0175 238.675 54.0175C238.944 54.0175 238.991 54.0643 238.991 54.1385Z" fill="#E5E5E5"/>
</svg>
